<svg xmlns="http://www.w3.org/2000/svg" xmlns:xlink="http://www.w3.org/1999/xlink" xmlns:lucid="lucid" width="1760" height="1360"><g transform="translate(0 0)" lucid:page-tab-id="0_0"><path d="M0 0h1760v1360H0z" fill="#fff"/><path d="M928 207.02c17.67 0 32 17.9 32 40s-14.33 40-32 40h-96c-17.67 0-32-17.9-32-40s14.33-40 32-40z" stroke="#000" stroke-opacity="0" fill="#ff741d"/><use xlink:href="#a" transform="matrix(1,0,0,1,805.0000000000005,212.01964843750824) translate(14.701669921874995 41.089501953125)"/><path d="M960 348a8 8 0 0 1 8-8h440.24a8 8 0 0 1 8 8v15.8a8 8 0 0 1-8 8H968a8 8 0 0 1-8-8z" fill="none"/><use xlink:href="#b" transform="matrix(1,0,0,1,965.0000000000005,345) translate(0 17.5478515625)"/><use xlink:href="#c" transform="matrix(1,0,0,1,965.0000000000005,345) translate(126.298828125 17.5478515625)"/><use xlink:href="#d" transform="matrix(1,0,0,1,965.0000000000005,345) translate(217.30078125 17.5478515625)"/><use xlink:href="#e" transform="matrix(1,0,0,1,965.0000000000005,345) translate(274.0166015625 17.5478515625)"/><use xlink:href="#f" transform="matrix(1,0,0,1,965.0000000000005,345) translate(328.7197265625 17.5478515625)"/><use xlink:href="#g" transform="matrix(1,0,0,1,965.0000000000005,345) translate(374.255859375 17.5478515625)"/><path d="M880 287.52v155.1" stroke="#333" fill="none"/><path d="M880.48 287.53h-.96v-.5h.96z" stroke="#333" stroke-width=".05" fill="#333"/><path d="M880 457.38l-4.63-14.26h9.26z" stroke="#333" fill="#333"/><path d="M800 468a8 8 0 0 1 8-8h144a8 8 0 0 1 8 8v74a8 8 0 0 1-8 8H808a8 8 0 0 1-8-8z" stroke="#000" stroke-width="2" fill="#fff"/><use xlink:href="#h" transform="matrix(1,0,0,1,805,465) translate(33.02783203125 46.5478515625)"/><use xlink:href="#i" transform="matrix(1,0,0,1,805,465) translate(60.45849609375 46.5478515625)"/><path d="M961.5 505h56.5a12 12 0 0 1 12 12v11a12 12 0 0 0 12 12h40.62" stroke="#333" fill="none"/><path d="M961.5 505.48h-.5v-.96h.5z" stroke="#333" stroke-width=".05" fill="#333"/><path d="M1097.38 540l-14.26 4.63v-9.26z" stroke="#333" fill="#333"/><path d="M1100 503a8 8 0 0 1 8-8h144a8 8 0 0 1 8 8v74a8 8 0 0 1-8 8h-144a8 8 0 0 1-8-8z" stroke="#000" stroke-width="2" fill="#fff"/><use xlink:href="#j" transform="matrix(1,0,0,1,1105,500) translate(66.80859375 46.5478515625)"/><path d="M798.5 505H752a12 12 0 0 0-12 12v11a12 12 0 0 1-12 12h-30.62" stroke="#333" fill="none"/><path d="M799 505.48h-.5v-.96h.5z" stroke="#333" stroke-width=".05" fill="#333"/><path d="M682.62 540l14.26-4.63v9.26z" stroke="#333" fill="#333"/><path d="M520 503a8 8 0 0 1 8-8h144a8 8 0 0 1 8 8v74a8 8 0 0 1-8 8H528a8 8 0 0 1-8-8z" stroke="#000" stroke-width="2" fill="#fff"/><use xlink:href="#k" transform="matrix(1,0,0,1,525,500) translate(61.33740234375 35.658203125)"/><use xlink:href="#l" transform="matrix(1,0,0,1,525,500) translate(75 57.4375)"/><path d="M1488 500c17.67 0 32 17.9 32 40s-14.33 40-32 40h-96c-17.67 0-32-17.9-32-40s14.33-40 32-40z" stroke="#000" stroke-opacity="0" fill="#ff741d"/><use xlink:href="#m" transform="matrix(1,0,0,1,1365,505) translate(12.53173828125 41.5478515625)"/><use xlink:href="#n" transform="matrix(1,0,0,1,1365,505) translate(90.15673828125 41.5478515625)"/><path d="M1261.5 540h82.12" stroke="#333" fill="none"/><path d="M1261.5 540.48h-.5v-.96h.5z" stroke="#333" stroke-width=".05" fill="#333"/><path d="M1358.38 540l-14.26 4.63v-9.26z" stroke="#333" fill="#333"/><path d="M280 648a8 8 0 0 1 8-8h245.3a8 8 0 0 1 8 8v68.06a8 8 0 0 1-8 8H288a8 8 0 0 1-8-8z" fill="none"/><use xlink:href="#b" transform="matrix(1,0,0,1,285,645) translate(0 17.912695312500006)"/><use xlink:href="#o" transform="matrix(1,0,0,1,285,645) translate(126.298828125 17.912695312500006)"/><use xlink:href="#p" transform="matrix(1,0,0,1,285,645) translate(0 44.0478515625)"/><use xlink:href="#q" transform="matrix(1,0,0,1,285,645) translate(51.6533203125 44.0478515625)"/><use xlink:href="#f" transform="matrix(1,0,0,1,285,645) translate(105.78515625 44.0478515625)"/><use xlink:href="#r" transform="matrix(1,0,0,1,285,645) translate(151.3212890625 44.0478515625)"/><use xlink:href="#s" transform="matrix(1,0,0,1,285,645) translate(0 70.1830078125)"/><path d="M600 586.5v58.03a10 10 0 0 1-10 10 10 10 0 0 0-10 10v42.15" stroke="#333" fill="none"/><path d="M600.48 586.5h-.96v-.5h.96z" stroke="#333" stroke-width=".05" fill="#333"/><path d="M580 721.44l-4.63-14.26h9.26z" stroke="#333" fill="#333"/><path d="M500 732.06a8 8 0 0 1 8-8h144a8 8 0 0 1 8 8v104a8 8 0 0 1-8 8H508a8 8 0 0 1-8-8z" stroke="#000" stroke-width="2" fill="#fff"/><use xlink:href="#t" transform="matrix(1,0,0,1,512,736.059609375) translate(1.0185546875 54.5478515625)"/><use xlink:href="#u" transform="matrix(1,0,0,1,512,736.059609375) translate(49.5869140625 54.5478515625)"/><use xlink:href="#i" transform="matrix(1,0,0,1,512,736.059609375) translate(78.4677734375 54.5478515625)"/><path d="M498.5 784.06H452a12 12 0 0 0-12 12V888a12 12 0 0 1-12 12h-30.62" stroke="#333" fill="none"/><path d="M499 784.53h-.5v-.94h.5z" stroke="#333" stroke-width=".05" fill="#333"/><path d="M382.62 900l14.26-4.63v9.26z" stroke="#333" fill="#333"/><path d="M260 852.06a8 8 0 0 1 8-8h84a8 8 0 0 1 8 8v104a8 8 0 0 1-8 8h-84a8 8 0 0 1-8-8z" stroke="#000" stroke-width="2" fill="#fff"/><use xlink:href="#v" transform="matrix(1,0,0,1,272,856.059609375) translate(29.80859375 54.5478515625)"/><path d="M258.5 904.06h-16.97a2.03 2.03 0 0 1-2.03-2.03 2.03 2.03 0 0 0-2.03-2.03h-1.1" stroke="#333" fill="none"/><path d="M259 904.53h-.5v-.94h.5z" stroke="#333" stroke-width=".05" fill="#333"/><path d="M221.62 900l14.26-4.63v9.26z" stroke="#333" fill="#333"/><path d="M188 860c17.67 0 32 17.9 32 40s-14.33 40-32 40H92c-17.67 0-32-17.9-32-40s14.33-40 32-40z" stroke="#000" stroke-opacity="0" fill="#ff741d"/><use xlink:href="#w" transform="matrix(1,0,0,1,65,865) translate(21.755859375 28.480273437500003)"/><use xlink:href="#x" transform="matrix(1,0,0,1,65,865) translate(12.53173828125 54.6154296875)"/><use xlink:href="#y" transform="matrix(1,0,0,1,65,865) translate(90.15673828125 54.6154296875)"/><path d="M661.5 784.06h100.53a7.97 7.97 0 0 1 7.97 7.97 7.97 7.97 0 0 0 7.97 7.97h84.65" stroke="#333" fill="none"/><path d="M661.5 784.53h-.5v-.94h.5z" stroke="#333" stroke-width=".05" fill="#333"/><path d="M877.38 800l-14.26 4.63v-9.26z" stroke="#333" fill="#333"/><path d="M880 748a8 8 0 0 1 8-8h104a8 8 0 0 1 8 8v104a8 8 0 0 1-8 8H888a8 8 0 0 1-8-8z" stroke="#000" stroke-width="2" fill="#fff"/><g><use xlink:href="#z" transform="matrix(1,0,0,1,885,745) translate(41.33740234375 48.4802734375)"/><use xlink:href="#A" transform="matrix(1,0,0,1,885,745) translate(55 74.6154296875)"/></g><path d="M940 861.5v61.12" stroke="#333" fill="none"/><path d="M940.48 861.5h-.96v-.5h.96z" stroke="#333" stroke-width=".05" fill="#333"/><path d="M940 937.38l-4.63-14.26h9.26z" stroke="#333" fill="#333"/><path d="M860 948a8 8 0 0 1 8-8h144a8 8 0 0 1 8 8v104a8 8 0 0 1-8 8H868a8 8 0 0 1-8-8z" stroke="#000" stroke-width="2" fill="#fff"/><g><use xlink:href="#B" transform="matrix(1,0,0,1,872,952) translate(4.3671875 28.412695312500006)"/><use xlink:href="#C" transform="matrix(1,0,0,1,872,952) translate(119.2138671875 28.412695312500006)"/><use xlink:href="#D" transform="matrix(1,0,0,1,872,952) translate(26.8232421875 54.5478515625)"/><use xlink:href="#E" transform="matrix(1,0,0,1,872,952) translate(54.482421875 54.5478515625)"/><use xlink:href="#F" transform="matrix(1,0,0,1,872,952) translate(3.3740234375 80.6830078125)"/></g><path d="M988 1160c17.67 0 32 17.9 32 40s-14.33 40-32 40h-96c-17.67 0-32-17.9-32-40s14.33-40 32-40z" stroke="#000" stroke-opacity="0" fill="#ff741d"/><g><use xlink:href="#x" transform="matrix(1,0,0,1,865,1165) translate(11.43310546875 41.5478515625)"/><use xlink:href="#G" transform="matrix(1,0,0,1,865,1165) translate(89.05810546875 41.5478515625)"/></g><path d="M940 1061.5v82.12" stroke="#333" fill="none"/><path d="M940.48 1061.5h-.96v-.5h.96z" stroke="#333" stroke-width=".05" fill="#333"/><path d="M940 1158.38l-4.63-14.26h9.26z" stroke="#333" fill="#333"/><defs><path fill="#fff" d="M698 20c-339 0-559-226-559-600 0-470 305-930 790-930 306 0 529 181 531 489h-190c-8-202-157-313-348-313-373 0-599 380-599 749 0 281 158 429 382 429 202 0 399-111 474-313h191C1267-166 997 20 698 20" id="H"/><path fill="#fff" d="M699 20c-338 0-560-226-560-600 0-472 307-930 791-930 337 0 558 226 558 599 0 474-306 931-789 931zm7-176c374 0 598-379 598-750 0-280-157-428-381-428-373 0-600 379-600 749 0 280 158 429 383 429" id="I"/><path fill="#fff" d="M87 0l247-1490h190L304-167h690L967 0H87" id="J"/><path fill="#fff" d="M-41 0l788-1490h220L1268 0h-192l-80-416H383L169 0H-41zm509-582h497c-56-293-77-375-126-756-162 359-224 468-371 756" id="K"/><path fill="#fff" d="M841 0l-27 166h-934L-93 0h934" id="L"/><path fill="#fff" d="M87 0l247-1490h510c351 0 476 196 432 460-33 197-146 351-346 417L1163 0H943L728-579c-116 2-237 0-355 1L277 0H87zm314-747h311c238 0 346-110 375-283 31-185-52-293-281-293H496" id="M"/><path fill="#fff" d="M87 0l247-1490h908l-28 167H496l-80 487h669l-28 167H387l-83 502h727L1004 0H87" id="N"/><path fill="#fff" d="M226-608c54-324 228-726 419-973h175c-209 318-363 684-411 972-44 264-11 530 103 888H337C213-15 178-320 226-608" id="O"/><path fill="#fff" d="M-43 280C186-71 310-340 354-607c48-291 15-654-89-973h176c108 246 149 649 95 974-48 289-184 595-403 886H-43" id="P"/><g id="a"><use transform="matrix(0.008173828125000001,0,0,0.008173828125000001,0,0)" xlink:href="#H"/><use transform="matrix(0.008173828125000001,0,0,0.008173828125000001,12.219873046875001,0)" xlink:href="#I"/><use transform="matrix(0.008173828125000001,0,0,0.008173828125000001,25.020087890625003,0)" xlink:href="#J"/><use transform="matrix(0.008173828125000001,0,0,0.008173828125000001,34.485380859375006,0)" xlink:href="#K"/><use transform="matrix(0.008173828125000001,0,0,0.008173828125000001,46.03500000000001,0)" xlink:href="#L"/><use transform="matrix(0.008173828125000001,0,0,0.008173828125000001,53.00727539062501,0)" xlink:href="#H"/><use transform="matrix(0.008173828125000001,0,0,0.008173828125000001,65.2271484375,0)" xlink:href="#M"/><use transform="matrix(0.008173828125000001,0,0,0.008173828125000001,76.00025390625001,0)" xlink:href="#N"/><use transform="matrix(0.008173828125000001,0,0,0.008173828125000001,86.07041015625,0)" xlink:href="#K"/><use transform="matrix(0.008173828125000001,0,0,0.008173828125000001,97.620029296875,0)" xlink:href="#M"/><use transform="matrix(0.008173828125000001,0,0,0.008173828125000001,108.393134765625,0)" xlink:href="#O"/><use transform="matrix(0.008173828125000001,0,0,0.008173828125000001,114.49898437500002,0)" xlink:href="#P"/></g><path d="M180 0v-1490h510c348 0 508 194 508 460 0 198-88 351-276 417L1256 0h-220L726-579c-117 2-238 0-356 1V0H180zm190-747h312c235 0 327-108 327-283 0-177-92-293-329-293H370v576" id="Q"/><path d="M180 0v-1490h908v168H370v486h669v168H370v500h727V0H180" id="R"/><path d="M657 26c-323 0-524-166-541-416h195c15 169 171 246 346 246 202 0 356-106 356-265 5-203-294-238-475-293-239-73-380-191-380-389 0-252 224-419 512-419 294 0 499 171 508 396H992c-17-145-151-228-328-228-193 0-321 102-321 242 0 156 175 211 284 241l149 41c160 44 422 134 422 412 0 244-197 432-541 432" id="S"/><path d="M600 0L52-1490h200c166 485 304 806 458 1336 156-533 285-846 449-1336h202L819 0H600" id="T"/><path d="M52 0l541-1490h220L1361 0h-200l-149-416H398L254 0H52zm404-582h497c-103-290-145-390-251-756-108 377-145 460-246 756" id="U"/><path d="M180 0v-1490h270l367 940c28 72 75 218 110 339 35-117 81-264 110-339l362-940h271V0h-187c2-448-5-837 7-1287-157 497-311 829-483 1287H842C666-458 514-784 354-1284c12 438 5 843 7 1284H180" id="V"/><path d="M784 20c-382 0-662-292-662-764 0-473 280-766 662-766s660 293 660 766c0 472-278 764-660 764zm0-176c266 0 475-207 475-588 0-383-209-590-475-590-268 0-477 208-477 590 0 380 209 588 477 588" id="W"/><g id="b"><use transform="matrix(0.0087890625,0,0,0.0087890625,0,0)" xlink:href="#Q"/><use transform="matrix(0.0087890625,0,0,0.0087890625,11.583984375,0)" xlink:href="#R"/><use transform="matrix(0.0087890625,0,0,0.0087890625,22.4033203125,0)" xlink:href="#S"/><use transform="matrix(0.0087890625,0,0,0.0087890625,33.9521484375,0)" xlink:href="#R"/><use transform="matrix(0.0087890625,0,0,0.0087890625,44.771484375,0)" xlink:href="#Q"/><use transform="matrix(0.0087890625,0,0,0.0087890625,56.056640625,0)" xlink:href="#T"/><use transform="matrix(0.0087890625,0,0,0.0087890625,67.2451171875,0)" xlink:href="#U"/><use transform="matrix(0.0087890625,0,0,0.0087890625,79.6640625,0)" xlink:href="#V"/><use transform="matrix(0.0087890625,0,0,0.0087890625,95.923828125,0)" xlink:href="#W"/><use transform="matrix(0.0087890625,0,0,0.0087890625,109.6875,0)" xlink:href="#S"/></g><path d="M370-1490V0H180v-1490h190" id="X"/><g id="c"><use transform="matrix(0.0087890625,0,0,0.0087890625,0,0)" xlink:href="#V"/><use transform="matrix(0.0087890625,0,0,0.0087890625,16.259765625,0)" xlink:href="#R"/><use transform="matrix(0.0087890625,0,0,0.0087890625,27.0791015625,0)" xlink:href="#V"/><use transform="matrix(0.0087890625,0,0,0.0087890625,43.3388671875,0)" xlink:href="#W"/><use transform="matrix(0.0087890625,0,0,0.0087890625,57.1025390625,0)" xlink:href="#Q"/><use transform="matrix(0.0087890625,0,0,0.0087890625,68.6865234375,0)" xlink:href="#X"/><use transform="matrix(0.0087890625,0,0,0.0087890625,73.5205078125,0)" xlink:href="#U"/></g><path d="M180 0v-1490h510c348 0 508 209 508 474 0 266-160 477-507 477H370V0H180zm190-706h312c236 0 327-133 327-310 0-176-91-307-329-307H370v617" id="Y"/><g id="d"><use transform="matrix(0.0087890625,0,0,0.0087890625,0,0)" xlink:href="#Y"/><use transform="matrix(0.0087890625,0,0,0.0087890625,10.1689453125,0)" xlink:href="#U"/><use transform="matrix(0.0087890625,0,0,0.0087890625,22.587890625,0)" xlink:href="#Q"/><use transform="matrix(0.0087890625,0,0,0.0087890625,34.171875,0)" xlink:href="#U"/></g><path d="M613 24c-304 0-509-231-509-576 0-350 205-580 509-580 216 0 392 114 453 309l-173 49c-33-115-133-197-280-197-223 0-326 196-326 419 0 220 103 415 326 415 150 0 252-85 285-206l172 49C1010-95 832 24 613 24" id="Z"/><path d="M613 24c-304 0-509-231-509-576 0-350 205-580 509-580 305 0 511 230 511 580 0 345-206 576-511 576zm0-161c226 0 329-195 329-415 0-222-103-419-329-419-223 0-326 196-326 419 0 220 103 415 326 415" id="aa"/><path d="M338-1490V0H158v-1490h180" id="ab"/><path d="M471 26C259 26 90-98 90-318c0-256 228-303 435-329 202-27 287-16 287-108 0-139-79-219-234-219-161 0-248 86-283 164l-173-57c86-203 278-265 451-265 150 0 419 46 419 395V0H815v-152h-12C765-73 660 26 471 26zm31-159c199 0 310-134 310-271v-155c-30 35-226 55-295 64-131 17-246 59-246 186 0 116 97 176 231 176" id="ac"/><path d="M934 0v166H0V0h934" id="ad"/><path d="M598-1118v154H368v674c0 100 37 144 132 144 23 0 62-6 92-12L629-6c-37 13-88 20-134 20-193 0-307-107-307-290v-688H20v-154h168v-266h180v266h230" id="ae"/><g id="e"><use transform="matrix(0.0087890625,0,0,0.0087890625,0,0)" xlink:href="#Z"/><use transform="matrix(0.0087890625,0,0,0.0087890625,10.283203125,0)" xlink:href="#aa"/><use transform="matrix(0.0087890625,0,0,0.0087890625,21.076171875,0)" xlink:href="#ab"/><use transform="matrix(0.0087890625,0,0,0.0087890625,25.435546875,0)" xlink:href="#ac"/><use transform="matrix(0.0087890625,0,0,0.0087890625,35.54296875,0)" xlink:href="#ad"/><use transform="matrix(0.0087890625,0,0,0.0087890625,43.751953125,0)" xlink:href="#ae"/></g><path d="M783 20c-382 0-661-292-661-764 0-473 279-766 661-766 302 0 548 182 601 489h-190c-42-204-217-313-411-313-268 0-476 208-476 590 0 381 209 588 476 588 195 0 369-110 411-313h190c-52 303-296 489-601 489" id="af"/><path d="M180 0v-1490h224l606 953c40 63 108 177 176 312-27-437-7-821-13-1265h190V0h-226C860-448 622-778 356-1262c27 476 11 792 15 1262H180" id="ag"/><g id="f"><use transform="matrix(0.0087890625,0,0,0.0087890625,0,0)" xlink:href="#af"/><use transform="matrix(0.0087890625,0,0,0.0087890625,13.1484375,0)" xlink:href="#W"/><use transform="matrix(0.0087890625,0,0,0.0087890625,26.912109375,0)" xlink:href="#ag"/></g><path d="M180 0v-1490h190v1322h690V0H180" id="ah"/><g id="g"><use transform="matrix(0.0087890625,0,0,0.0087890625,0,0)" xlink:href="#af"/><use transform="matrix(0.0087890625,0,0,0.0087890625,12.796875,0)" xlink:href="#U"/><use transform="matrix(0.0087890625,0,0,0.0087890625,25.2158203125,0)" xlink:href="#ah"/><use transform="matrix(0.0087890625,0,0,0.0087890625,35.3935546875,0)" xlink:href="#ah"/><use transform="matrix(0.0087890625,0,0,0.0087890625,45.0615234375,0)" xlink:href="#W"/><use transform="matrix(0.0087890625,0,0,0.0087890625,58.8251953125,0)" xlink:href="#af"/></g><path fill="#666" d="M180 0v-1490h908v168H370v486h669v168H370v500h727V0H180" id="ai"/><path fill="#666" d="M657 26c-323 0-524-166-541-416h195c15 169 171 246 346 246 202 0 356-106 356-265 5-203-294-238-475-293-239-73-380-191-380-389 0-252 224-419 512-419 294 0 499 171 508 396H992c-17-145-151-228-328-228-193 0-321 102-321 242 0 156 175 211 284 241l149 41c160 44 422 134 422 412 0 244-197 432-541 432" id="aj"/><g id="h"><use transform="matrix(0.0087890625,0,0,0.0087890625,0,0)" xlink:href="#ai"/><use transform="matrix(0.0087890625,0,0,0.0087890625,10.8193359375,0)" xlink:href="#aj"/></g><path fill="#666" d="M180 0v-1490h224l606 953c40 63 108 177 176 312-27-437-7-821-13-1265h190V0h-226C860-448 622-778 356-1262c27 476 11 792 15 1262H180" id="ak"/><path fill="#666" d="M763 24c-353 0-583-224-583-531v-983h190v968c0 214 149 370 393 370 243 0 391-156 391-370v-968h190v983c0 307-230 531-581 531" id="al"/><path fill="#666" d="M180 0v-1490h190v1322h690V0H180" id="am"/><path fill="#666" d="M383-449c-3-277 82-343 222-425 88-53 156-134 156-250 0-139-108-227-243-227-118 0-235 70-246 236H82c10-251 200-395 436-395 259 0 427 165 427 393 0 161-74 273-203 352-132 80-180 132-178 316H383zm93 462c-75 0-135-60-135-134 0-75 60-135 135-135 74 0 134 60 134 135 0 74-60 134-134 134" id="an"/><g id="i"><use transform="matrix(0.0087890625,0,0,0.0087890625,0,0)" xlink:href="#ak"/><use transform="matrix(0.0087890625,0,0,0.0087890625,13.5615234375,0)" xlink:href="#al"/><use transform="matrix(0.0087890625,0,0,0.0087890625,26.9560546875,0)" xlink:href="#am"/><use transform="matrix(0.0087890625,0,0,0.0087890625,37.1337890625,0)" xlink:href="#am"/><use transform="matrix(0.0087890625,0,0,0.0087890625,47.3115234375,0)" xlink:href="#an"/></g><path fill="#666" d="M370-1490V0H180v-1490h190" id="ao"/><g id="j"><use transform="matrix(0.0087890625,0,0,0.0087890625,0,0)" xlink:href="#aj"/><use transform="matrix(0.0087890625,0,0,0.0087890625,11.548828125,0)" xlink:href="#ao"/></g><path fill="#666" d="M784 20c-382 0-662-292-662-764 0-473 280-766 662-766s660 293 660 766c0 472-278 764-660 764zm0-176c266 0 475-207 475-588 0-383-209-590-475-590-268 0-477 208-477 590 0 380 209 588 477 588" id="ap"/><g id="k"><use transform="matrix(0.0087890625,0,0,0.0087890625,0,0)" xlink:href="#ak"/><use transform="matrix(0.0087890625,0,0,0.0087890625,13.5615234375,0)" xlink:href="#ap"/></g><path d="M98-1322v-168h1126v168H757V0H567v-1322H98" id="aq"/><path d="M763 24c-353 0-583-224-583-531v-983h190v968c0 214 149 370 393 370 243 0 391-156 391-370v-968h190v983c0 307-230 531-581 531" id="ar"/><g id="m"><use transform="matrix(0.0087890625,0,0,0.0087890625,0,0)" xlink:href="#Q"/><use transform="matrix(0.0087890625,0,0,0.0087890625,11.583984375,0)" xlink:href="#R"/><use transform="matrix(0.0087890625,0,0,0.0087890625,22.4033203125,0)" xlink:href="#aq"/><use transform="matrix(0.0087890625,0,0,0.0087890625,34.0224609375,0)" xlink:href="#ar"/><use transform="matrix(0.0087890625,0,0,0.0087890625,47.4169921875,0)" xlink:href="#Q"/><use transform="matrix(0.0087890625,0,0,0.0087890625,59.0009765625,0)" xlink:href="#ag"/></g><g id="n"><use transform="matrix(0.0087890625,0,0,0.0087890625,0,0)" xlink:href="#ag"/><use transform="matrix(0.0087890625,0,0,0.0087890625,13.5615234375,0)" xlink:href="#ar"/><use transform="matrix(0.0087890625,0,0,0.0087890625,26.9560546875,0)" xlink:href="#ah"/><use transform="matrix(0.0087890625,0,0,0.0087890625,37.1337890625,0)" xlink:href="#ah"/></g><g id="o"><use transform="matrix(0.0087890625,0,0,0.0087890625,0,0)" xlink:href="#V"/><use transform="matrix(0.0087890625,0,0,0.0087890625,16.259765625,0)" xlink:href="#R"/><use transform="matrix(0.0087890625,0,0,0.0087890625,27.0791015625,0)" xlink:href="#V"/><use transform="matrix(0.0087890625,0,0,0.0087890625,43.3388671875,0)" xlink:href="#W"/><use transform="matrix(0.0087890625,0,0,0.0087890625,57.1025390625,0)" xlink:href="#Q"/><use transform="matrix(0.0087890625,0,0,0.0087890625,68.6865234375,0)" xlink:href="#X"/><use transform="matrix(0.0087890625,0,0,0.0087890625,73.5205078125,0)" xlink:href="#U"/></g><g id="p"><use transform="matrix(0.0087890625,0,0,0.0087890625,0,0)" xlink:href="#Y"/><use transform="matrix(0.0087890625,0,0,0.0087890625,10.1689453125,0)" xlink:href="#U"/><use transform="matrix(0.0087890625,0,0,0.0087890625,22.587890625,0)" xlink:href="#Q"/><use transform="matrix(0.0087890625,0,0,0.0087890625,34.171875,0)" xlink:href="#U"/></g><g id="q"><use transform="matrix(0.0087890625,0,0,0.0087890625,0,0)" xlink:href="#ah"/><use transform="matrix(0.0087890625,0,0,0.0087890625,10.177734375,0)" xlink:href="#X"/><use transform="matrix(0.0087890625,0,0,0.0087890625,15.01171875,0)" xlink:href="#S"/><use transform="matrix(0.0087890625,0,0,0.0087890625,26.560546875,0)" xlink:href="#aq"/><use transform="matrix(0.0087890625,0,0,0.0087890625,36.650390625,0)" xlink:href="#U"/></g><path d="M158 0v-1118h180V0H158zm91-1301c-68 0-125-53-125-119s57-119 125-119c69 0 126 53 126 119s-57 119-126 119" id="as"/><path d="M538 24C308 24 148-78 108-271l171-41c32 123 123 178 257 178 156 0 256-77 256-169 0-77-54-128-164-154l-186-44c-203-48-300-148-300-305 0-192 176-326 414-326 230 0 351 112 402 269l-163 42c-31-80-94-158-238-158-133 0-233 69-233 162 0 83 57 129 188 160l169 40c203 48 298 149 298 302 0 196-179 339-441 339" id="at"/><path d="M158 0v-1118h174v172h12c41-113 157-188 290-188 26 0 70 2 91 3v181c-11-2-60-10-108-10-161 0-279 109-279 260V0H158" id="au"/><path d="M628 24c-324 0-524-230-524-574 0-343 198-582 503-582 237 0 487 146 487 559v75H286c9 234 145 362 343 362 132 0 231-58 273-172l174 48C1024-91 857 24 628 24zM287-650h624c-17-190-120-322-304-322-192 0-309 151-320 322" id="av"/><path d="M218-607c0-325 108-727 258-974h175c-155 315-250 682-250 974 0 265 78 531 250 886H476C306-10 218-315 218-607" id="aw"/><path d="M96 279C273-86 346-350 346-607c0-292-95-659-250-974h175c150 246 258 650 258 974 0 297-91 602-258 886H96" id="ax"/><g id="r"><use transform="matrix(0.0087890625,0,0,0.0087890625,0,0)" xlink:href="#ab"/><use transform="matrix(0.0087890625,0,0,0.0087890625,4.359375,0)" xlink:href="#as"/><use transform="matrix(0.0087890625,0,0,0.0087890625,8.71875,0)" xlink:href="#at"/><use transform="matrix(0.0087890625,0,0,0.0087890625,18.2197265625,0)" xlink:href="#ae"/><use transform="matrix(0.0087890625,0,0,0.0087890625,24.1962890625,0)" xlink:href="#ac"/><use transform="matrix(0.0087890625,0,0,0.0087890625,34.3037109375,0)" xlink:href="#ad"/><use transform="matrix(0.0087890625,0,0,0.0087890625,42.5126953125,0)" xlink:href="#Z"/><use transform="matrix(0.0087890625,0,0,0.0087890625,52.7958984375,0)" xlink:href="#au"/><use transform="matrix(0.0087890625,0,0,0.0087890625,59.2734375,0)" xlink:href="#av"/><use transform="matrix(0.0087890625,0,0,0.0087890625,69.943359375,0)" xlink:href="#ac"/><use transform="matrix(0.0087890625,0,0,0.0087890625,80.05078125,0)" xlink:href="#au"/><use transform="matrix(0.0087890625,0,0,0.0087890625,86.8271484375,0)" xlink:href="#aw"/><use transform="matrix(0.0087890625,0,0,0.0087890625,93.392578125,0)" xlink:href="#ax"/></g><path fill="#666" d="M664-669c3 277-82 343-222 425-88 53-156 134-156 250 0 139 108 227 243 227 118 0 235-70 246-236h190c-10 251-200 395-436 395-259 0-427-165-427-393 0-161 74-273 203-352 132-80 180-132 178-316h181zm-93-462c75 0 135 60 135 134 0 75-60 135-135 135-74 0-134-60-134-135 0-74 60-134 134-134" id="ay"/><path fill="#666" d="M338-1490V0H158v-1490h180" id="az"/><path fill="#666" d="M158 0v-1118h180V0H158zm91-1301c-68 0-125-53-125-119s57-119 125-119c69 0 126 53 126 119s-57 119-126 119" id="aA"/><path fill="#666" d="M538 24C308 24 148-78 108-271l171-41c32 123 123 178 257 178 156 0 256-77 256-169 0-77-54-128-164-154l-186-44c-203-48-300-148-300-305 0-192 176-326 414-326 230 0 351 112 402 269l-163 42c-31-80-94-158-238-158-133 0-233 69-233 162 0 83 57 129 188 160l169 40c203 48 298 149 298 302 0 196-179 339-441 339" id="aB"/><path fill="#666" d="M598-1118v154H368v674c0 100 37 144 132 144 23 0 62-6 92-12L629-6c-37 13-88 20-134 20-193 0-307-107-307-290v-688H20v-154h168v-266h180v266h230" id="aC"/><path fill="#666" d="M471 26C259 26 90-98 90-318c0-256 228-303 435-329 202-27 287-16 287-108 0-139-79-219-234-219-161 0-248 86-283 164l-173-57c86-203 278-265 451-265 150 0 419 46 419 395V0H815v-152h-12C765-73 660 26 471 26zm31-159c199 0 310-134 310-271v-155c-30 35-226 55-295 64-131 17-246 59-246 186 0 116 97 176 231 176" id="aD"/><g id="t"><use transform="matrix(0.0087890625,0,0,0.0087890625,0,0)" xlink:href="#ay"/><use transform="matrix(0.0087890625,0,0,0.0087890625,9.2021484375,0)" xlink:href="#az"/><use transform="matrix(0.0087890625,0,0,0.0087890625,13.5615234375,0)" xlink:href="#aA"/><use transform="matrix(0.0087890625,0,0,0.0087890625,17.9208984375,0)" xlink:href="#aB"/><use transform="matrix(0.0087890625,0,0,0.0087890625,27.421875,0)" xlink:href="#aC"/><use transform="matrix(0.0087890625,0,0,0.0087890625,33.3984375,0)" xlink:href="#aD"/></g><path fill="#666" d="M226-283v-166h904v166H226zm0-434v-166h904v166H226" id="aE"/><g id="u"><use transform="matrix(0.0087890625,0,0,0.0087890625,0,0)" xlink:href="#aE"/><use transform="matrix(0.0087890625,0,0,0.0087890625,11.9091796875,0)" xlink:href="#aE"/></g><g id="v"><use transform="matrix(0.0087890625,0,0,0.0087890625,0,0)" xlink:href="#S"/><use transform="matrix(0.0087890625,0,0,0.0087890625,11.548828125,0)" xlink:href="#X"/></g><path d="M180 0v-1490h901v168H370v510h643v168H370V0H180" id="aF"/><g id="w"><use transform="matrix(0.0087890625,0,0,0.0087890625,0,0)" xlink:href="#aF"/><use transform="matrix(0.0087890625,0,0,0.0087890625,10.6259765625,0)" xlink:href="#Q"/><use transform="matrix(0.0087890625,0,0,0.0087890625,22.2099609375,0)" xlink:href="#R"/><use transform="matrix(0.0087890625,0,0,0.0087890625,33.029296875,0)" xlink:href="#R"/><use transform="matrix(0.0087890625,0,0,0.0087890625,43.8486328125,0)" xlink:href="#aw"/><use transform="matrix(0.0087890625,0,0,0.0087890625,50.4140625,0)" xlink:href="#af"/><use transform="matrix(0.0087890625,0,0,0.0087890625,63.5625,0)" xlink:href="#W"/><use transform="matrix(0.0087890625,0,0,0.0087890625,77.326171875,0)" xlink:href="#ah"/><use transform="matrix(0.0087890625,0,0,0.0087890625,87.50390625,0)" xlink:href="#U"/><use transform="matrix(0.0087890625,0,0,0.0087890625,99.9228515625,0)" xlink:href="#ax"/></g><g id="x"><use transform="matrix(0.0087890625,0,0,0.0087890625,0,0)" xlink:href="#Q"/><use transform="matrix(0.0087890625,0,0,0.0087890625,11.583984375,0)" xlink:href="#R"/><use transform="matrix(0.0087890625,0,0,0.0087890625,22.4033203125,0)" xlink:href="#aq"/><use transform="matrix(0.0087890625,0,0,0.0087890625,34.0224609375,0)" xlink:href="#ar"/><use transform="matrix(0.0087890625,0,0,0.0087890625,47.4169921875,0)" xlink:href="#Q"/><use transform="matrix(0.0087890625,0,0,0.0087890625,59.0009765625,0)" xlink:href="#ag"/></g><g id="y"><use transform="matrix(0.0087890625,0,0,0.0087890625,0,0)" xlink:href="#ag"/><use transform="matrix(0.0087890625,0,0,0.0087890625,13.5615234375,0)" xlink:href="#ar"/><use transform="matrix(0.0087890625,0,0,0.0087890625,26.9560546875,0)" xlink:href="#ah"/><use transform="matrix(0.0087890625,0,0,0.0087890625,37.1337890625,0)" xlink:href="#ah"/></g><g id="z"><use transform="matrix(0.0087890625,0,0,0.0087890625,0,0)" xlink:href="#ag"/><use transform="matrix(0.0087890625,0,0,0.0087890625,13.5615234375,0)" xlink:href="#W"/></g><path d="M789 20c-398 0-667-293-667-764 0-473 273-766 655-766 315 0 558 198 612 487h-196c-61-191-204-311-415-311-262 0-471 207-471 590 0 380 208 588 482 588 249 0 420-165 425-427H828v-166h572v163c0 370-256 606-611 606" id="aG"/><g id="B"><use transform="matrix(0.0087890625,0,0,0.0087890625,0,0)" xlink:href="#U"/><use transform="matrix(0.0087890625,0,0,0.0087890625,12.4189453125,0)" xlink:href="#S"/><use transform="matrix(0.0087890625,0,0,0.0087890625,23.9677734375,0)" xlink:href="#X"/><use transform="matrix(0.0087890625,0,0,0.0087890625,28.8017578125,0)" xlink:href="#aG"/><use transform="matrix(0.0087890625,0,0,0.0087890625,42.2314453125,0)" xlink:href="#ag"/><use transform="matrix(0.0087890625,0,0,0.0087890625,55.79296875,0)" xlink:href="#U"/><use transform="matrix(0.0087890625,0,0,0.0087890625,68.2119140625,0)" xlink:href="#V"/><use transform="matrix(0.0087890625,0,0,0.0087890625,84.4716796875,0)" xlink:href="#W"/><use transform="matrix(0.0087890625,0,0,0.0087890625,98.2353515625,0)" xlink:href="#S"/></g><use transform="matrix(0.0087890625,0,0,0.0087890625,0,0)" xlink:href="#U" id="C"/><g id="D"><use transform="matrix(0.0087890625,0,0,0.0087890625,0,0)" xlink:href="#ah"/><use transform="matrix(0.0087890625,0,0,0.0087890625,10.177734375,0)" xlink:href="#U"/></g><path d="M128 359l88-567h206L266 359H128" id="aH"/><g id="E"><use transform="matrix(0.0087890625,0,0,0.0087890625,0,0)" xlink:href="#af"/><use transform="matrix(0.0087890625,0,0,0.0087890625,13.1484375,0)" xlink:href="#W"/><use transform="matrix(0.0087890625,0,0,0.0087890625,26.912109375,0)" xlink:href="#ah"/><use transform="matrix(0.0087890625,0,0,0.0087890625,37.08984375,0)" xlink:href="#U"/><use transform="matrix(0.0087890625,0,0,0.0087890625,49.5087890625,0)" xlink:href="#aH"/></g><g id="F"><use transform="matrix(0.0087890625,0,0,0.0087890625,0,0)" xlink:href="#ah"/><use transform="matrix(0.0087890625,0,0,0.0087890625,10.177734375,0)" xlink:href="#X"/><use transform="matrix(0.0087890625,0,0,0.0087890625,15.01171875,0)" xlink:href="#S"/><use transform="matrix(0.0087890625,0,0,0.0087890625,26.560546875,0)" xlink:href="#aq"/><use transform="matrix(0.0087890625,0,0,0.0087890625,36.650390625,0)" xlink:href="#U"/><use transform="matrix(0.0087890625,0,0,0.0087890625,49.0693359375,0)" xlink:href="#ad"/><use transform="matrix(0.0087890625,0,0,0.0087890625,56.56640625,0)" xlink:href="#af"/><use transform="matrix(0.0087890625,0,0,0.0087890625,69.71484375,0)" xlink:href="#Q"/><use transform="matrix(0.0087890625,0,0,0.0087890625,81.298828125,0)" xlink:href="#R"/><use transform="matrix(0.0087890625,0,0,0.0087890625,92.1181640625,0)" xlink:href="#U"/><use transform="matrix(0.0087890625,0,0,0.0087890625,104.537109375,0)" xlink:href="#Q"/><use transform="matrix(0.0087890625,0,0,0.0087890625,116.12109375,0)" xlink:href="#aw"/><use transform="matrix(0.0087890625,0,0,0.0087890625,122.6865234375,0)" xlink:href="#ax"/></g><g id="G"><use transform="matrix(0.0087890625,0,0,0.0087890625,0,0)" xlink:href="#af"/><use transform="matrix(0.0087890625,0,0,0.0087890625,13.1484375,0)" xlink:href="#W"/><use transform="matrix(0.0087890625,0,0,0.0087890625,26.912109375,0)" xlink:href="#ah"/><use transform="matrix(0.0087890625,0,0,0.0087890625,37.08984375,0)" xlink:href="#U"/></g></defs></g></svg>