<svg xmlns="http://www.w3.org/2000/svg" xmlns:xlink="http://www.w3.org/1999/xlink" xmlns:lucid="lucid" width="1881" height="1601"><g transform="translate(80 120)" lucid:page-tab-id="0_0"><path d="M-500-500h2500v2000H-500z" fill="#fff"/><path d="M250.8 81.54a6 6 0 0 1 6-6h148a6 6 0 0 1 6 6v108a6 6 0 0 1-6 6h-148a6 6 0 0 1-6-6z" stroke="#000" stroke-width="2" fill="#fff"/><use xlink:href="#a" transform="matrix(1,0,0,1,262.80274836718615,87.53818880899502) translate(38.30164930555556 23.818142361111114)"/><use xlink:href="#b" transform="matrix(1,0,0,1,262.80274836718615,87.53818880899502) translate(-8.66015625 56.083767361111114)"/><use xlink:href="#c" transform="matrix(1,0,0,1,262.80274836718615,87.53818880899502) translate(49.59722222222222 88.34939236111111)"/><path d="M60-74a6 6 0 0 1 6-6h108a6 6 0 0 1 6 6v60a12.48 12.48 0 0 1-4.7 9.75l-50.62 40.5a7.5 7.5 0 0 1-9.37 0l-50.6-40.5a12.48 12.48 0 0 1-4.7-9.75z" stroke="#000" stroke-width="2" fill="#fff"/><use xlink:href="#d" transform="matrix(1,0,0,1,65,-75) translate(10.425347222222221 62.77777777777778)"/><path d="M60-114a6 6 0 0 1 6-6h108.64a6 6 0 0 1 6 6v57.16a6 6 0 0 1-6 6H66a6 6 0 0 1-6-6z" fill="none"/><use xlink:href="#e" transform="matrix(1,0,0,1,65,-115) translate(0 21.95095486111111)"/><use xlink:href="#f" transform="matrix(1,0,0,1,65,-115) translate(0 54.21657986111111)"/><path d="M500 81.54a6 6 0 0 1 6-6h148a6 6 0 0 1 6 6v108a6 6 0 0 1-6 6H506a6 6 0 0 1-6-6z" stroke="#000" stroke-width="2" fill="#fff"/><use xlink:href="#a" transform="matrix(1,0,0,1,512,87.53818880899502) translate(38.30164930555556 23.818142361111114)"/><use xlink:href="#b" transform="matrix(1,0,0,1,512,87.53818880899502) translate(-8.66015625 56.083767361111114)"/><use xlink:href="#c" transform="matrix(1,0,0,1,512,87.53818880899502) translate(49.59722222222222 88.34939236111111)"/><path d="M749.2 81.54a6 6 0 0 1 6-6h148a6 6 0 0 1 6 6v108a6 6 0 0 1-6 6h-148a6 6 0 0 1-6-6z" stroke="#000" stroke-width="2" fill="#fff"/><use xlink:href="#a" transform="matrix(1,0,0,1,761.1972516328138,87.53818880899502) translate(38.30164930555556 23.818142361111114)"/><use xlink:href="#b" transform="matrix(1,0,0,1,761.1972516328138,87.53818880899502) translate(-8.66015625 56.083767361111114)"/><use xlink:href="#c" transform="matrix(1,0,0,1,761.1972516328138,87.53818880899502) translate(49.59722222222222 88.34939236111111)"/><path d="M120 39.4v11.32a6 6 0 0 0 6 6h203.37a1.44 1.44 0 0 1 1.43 1.43" stroke="#3a414a" fill="none"/><path d="M120 38.9l.47-.03v.54h-.94v-.53z" stroke="#3a414a" stroke-width=".05" fill="#3a414a"/><path d="M330.8 72.92l-4.63-14.27h9.27z" stroke="#3a414a" fill="#3a414a"/><path d="M-80 126a6 6 0 0 1 6-6H85.44a6 6 0 0 1 6 6v57.16a6 6 0 0 1-6 6H-74a6 6 0 0 1-6-6z" fill="none"/><use xlink:href="#g" transform="matrix(1,0,0,1,-75,125) translate(0 21.95095486111111)"/><use xlink:href="#h" transform="matrix(1,0,0,1,-75,125) translate(42.947048611111114 21.95095486111111)"/><use xlink:href="#f" transform="matrix(1,0,0,1,-75,125) translate(0 54.21657986111111)"/><path d="M1180 122.2c22.1 0 40 17.9 40 40s-17.9 40-40 40h-80c-22.1 0-40-17.9-40-40s17.9-40 40-40z" stroke="#000" stroke-width="2" fill="#fff"/><use xlink:href="#i" transform="matrix(1,0,0,1,1065,127.20485547566165) translate(45.79535590277778 43.40277777777778)"/><path d="M520 288.2a6 6 0 0 1 6-6h108a6 6 0 0 1 6 6v60a12.48 12.48 0 0 1-4.68 9.75l-50.64 40.5a7.5 7.5 0 0 1-9.36 0l-50.64-40.5a12.48 12.48 0 0 1-4.68-9.75z" stroke="#000" stroke-width="2" fill="#fff"/><use xlink:href="#d" transform="matrix(1,0,0,1,525,287.2048554756616) translate(10.425347222222221 62.77777777777778)"/><path d="M519.36 248.2a6 6 0 0 1 6-6H634a6 6 0 0 1 6 6v57.17a6 6 0 0 1-6 6H525.36a6 6 0 0 1-6-6z" fill="none"/><use xlink:href="#e" transform="matrix(1,0,0,1,524.3563194444445,247.20485547566165) translate(0 21.95095486111111)"/><use xlink:href="#f" transform="matrix(1,0,0,1,524.3563194444445,247.20485547566165) translate(0 54.21657986111111)"/><path d="M250.8 448.44a6 6 0 0 1 6-6h148a6 6 0 0 1 6 6v108a6 6 0 0 1-6 6h-148a6 6 0 0 1-6-6z" stroke="#000" stroke-width="2" fill="#fff"/><use xlink:href="#a" transform="matrix(1,0,0,1,262.80274836718615,454.4357610711641) translate(38.30164930555556 23.818142361111114)"/><use xlink:href="#b" transform="matrix(1,0,0,1,262.80274836718615,454.4357610711641) translate(-8.66015625 56.083767361111114)"/><use xlink:href="#c" transform="matrix(1,0,0,1,262.80274836718615,454.4357610711641) translate(49.59722222222222 88.34939236111111)"/><path d="M500 448.44a6 6 0 0 1 6-6h148a6 6 0 0 1 6 6v108a6 6 0 0 1-6 6H506a6 6 0 0 1-6-6z" stroke="#000" stroke-width="2" fill="#fff"/><use xlink:href="#a" transform="matrix(1,0,0,1,512,454.4357610711641) translate(38.30164930555556 23.818142361111114)"/><use xlink:href="#b" transform="matrix(1,0,0,1,512,454.4357610711641) translate(-8.66015625 56.083767361111114)"/><use xlink:href="#c" transform="matrix(1,0,0,1,512,454.4357610711641) translate(49.59722222222222 88.34939236111111)"/><path d="M749.2 448.44a6 6 0 0 1 6-6h148a6 6 0 0 1 6 6v108a6 6 0 0 1-6 6h-148a6 6 0 0 1-6-6z" stroke="#000" stroke-width="2" fill="#fff"/><use xlink:href="#a" transform="matrix(1,0,0,1,761.1972516328138,454.4357610711641) translate(38.30164930555556 23.818142361111114)"/><use xlink:href="#b" transform="matrix(1,0,0,1,761.1972516328138,454.4357610711641) translate(-8.66015625 56.083767361111114)"/><use xlink:href="#c" transform="matrix(1,0,0,1,761.1972516328138,454.4357610711641) translate(49.59722222222222 88.34939236111111)"/><path d="M910.7 502.44h131.96" stroke="#3a414a" fill="none"/><path d="M910.7 502.9h-.5v-.94h.5z" stroke="#3a414a" stroke-width=".05" fill="#3a414a"/><path d="M1057.43 502.44l-14.27 4.63v-9.27z" stroke="#3a414a" fill="#3a414a"/><path d="M1180 461.1c22.1 0 40 17.9 40 40s-17.9 40-40 40h-80c-22.1 0-40-17.9-40-40s17.9-40 40-40z" stroke="#000" stroke-width="2" fill="#fff"/><use xlink:href="#i" transform="matrix(1,0,0,1,1065,466.10242773783085) translate(45.79535590277778 43.40277777777778)"/><path d="M910.7 135.54h67.9a6 6 0 0 1 6 6v14.67a6 6 0 0 0 6 6h52" stroke="#3a414a" fill="none"/><path d="M910.7 136h-.5v-.94h.5z" stroke="#3a414a" stroke-width=".05" fill="#3a414a"/><path d="M1057.38 162.2l-14.27 4.64.02-9.27z" stroke="#3a414a" fill="#3a414a"/><path d="M760.64 696.44a6 6 0 0 1 6-6h108a6 6 0 0 1 6 6v60a12.48 12.48 0 0 1-4.68 9.74l-50.63 40.5a7.5 7.5 0 0 1-9.37 0l-50.63-40.5a12.48 12.48 0 0 1-4.7-9.74z" stroke="#000" stroke-width="2" fill="#fff"/><use xlink:href="#d" transform="matrix(1,0,0,1,765.6436805555555,695.4357610711642) translate(10.425347222222221 62.77777777777778)"/><path d="M760 656.44a6 6 0 0 1 6-6h108.64a6 6 0 0 1 6 6v57.16a6 6 0 0 1-6 6H766a6 6 0 0 1-6-6z" fill="none"/><use xlink:href="#e" transform="matrix(1,0,0,1,765,655.4357610711642) translate(0 21.95095486111111)"/><use xlink:href="#f" transform="matrix(1,0,0,1,765,655.4357610711642) translate(0 54.21657986111111)"/><path d="M250.8 855.16a6 6 0 0 1 6-6h148a6 6 0 0 1 6 6v108a6 6 0 0 1-6 6h-148a6 6 0 0 1-6-6z" stroke="#000" stroke-width="2" fill="#fff"/><use xlink:href="#a" transform="matrix(1,0,0,1,262.80274836718615,861.1636458333334) translate(38.30164930555556 23.818142361111114)"/><use xlink:href="#b" transform="matrix(1,0,0,1,262.80274836718615,861.1636458333334) translate(-8.66015625 56.083767361111114)"/><use xlink:href="#c" transform="matrix(1,0,0,1,262.80274836718615,861.1636458333334) translate(49.59722222222222 88.34939236111111)"/><path d="M500 855.16a6 6 0 0 1 6-6h148a6 6 0 0 1 6 6v108a6 6 0 0 1-6 6H506a6 6 0 0 1-6-6z" stroke="#000" stroke-width="2" fill="#fff"/><use xlink:href="#a" transform="matrix(1,0,0,1,512,861.1636458333334) translate(38.30164930555556 23.818142361111114)"/><use xlink:href="#b" transform="matrix(1,0,0,1,512,861.1636458333334) translate(-8.66015625 56.083767361111114)"/><use xlink:href="#c" transform="matrix(1,0,0,1,512,861.1636458333334) translate(49.59722222222222 88.34939236111111)"/><path d="M749.2 855.16a6 6 0 0 1 6-6h148a6 6 0 0 1 6 6v108a6 6 0 0 1-6 6h-148a6 6 0 0 1-6-6z" stroke="#000" stroke-width="2" fill="#fff"/><use xlink:href="#a" transform="matrix(1,0,0,1,761.1972516328138,861.1636458333334) translate(38.30164930555556 23.818142361111114)"/><use xlink:href="#b" transform="matrix(1,0,0,1,761.1972516328138,861.1636458333334) translate(-8.66015625 56.083767361111114)"/><use xlink:href="#c" transform="matrix(1,0,0,1,761.1972516328138,861.1636458333334) translate(49.59722222222222 88.34939236111111)"/><path d="M1180 867.83c22.1 0 40 17.9 40 40s-17.9 40-40 40h-80c-22.1 0-40-17.9-40-40s17.9-40 40-40z" stroke="#000" stroke-width="2" fill="#fff"/><use xlink:href="#i" transform="matrix(1,0,0,1,1065,872.8303124999998) translate(45.79535590277778 43.40277777777778)"/><path d="M1070.8 1112.67a6 6 0 0 1 6-6h108a6 6 0 0 1 6 6v60a12.48 12.48 0 0 1-4.68 9.74l-50.63 40.52a7.5 7.5 0 0 1-9.38 0l-50.63-40.5a12.48 12.48 0 0 1-4.7-9.75z" stroke="#000" stroke-width="2" fill="#fff"/><use xlink:href="#d" transform="matrix(1,0,0,1,1075.8027483671863,1111.6666666666665) translate(10.425347222222221 62.77777777777778)"/><path d="M1070.8 1066a6 6 0 0 1 6-6h108.65a6 6 0 0 1 6 6v57.16a6 6 0 0 1-6 6H1076.8a6 6 0 0 1-6-6z" fill="none"/><use xlink:href="#e" transform="matrix(1,0,0,1,1075.8027483671865,1065) translate(0 21.95095486111111)"/><use xlink:href="#f" transform="matrix(1,0,0,1,1075.8027483671865,1065) translate(0 54.21657986111111)"/><path d="M250.8 1258a6 6 0 0 1 6-6h148a6 6 0 0 1 6 6v108a6 6 0 0 1-6 6h-148a6 6 0 0 1-6-6z" stroke="#000" stroke-width="2" fill="#fff"/><use xlink:href="#a" transform="matrix(1,0,0,1,262.80274836718615,1264) translate(38.30164930555556 23.818142361111114)"/><use xlink:href="#b" transform="matrix(1,0,0,1,262.80274836718615,1264) translate(-8.66015625 56.083767361111114)"/><use xlink:href="#c" transform="matrix(1,0,0,1,262.80274836718615,1264) translate(49.59722222222222 88.34939236111111)"/><path d="M500 1258a6 6 0 0 1 6-6h148a6 6 0 0 1 6 6v108a6 6 0 0 1-6 6H506a6 6 0 0 1-6-6z" stroke="#000" stroke-width="2" fill="#fff"/><use xlink:href="#a" transform="matrix(1,0,0,1,512,1264) translate(38.30164930555556 23.818142361111114)"/><use xlink:href="#b" transform="matrix(1,0,0,1,512,1264) translate(-8.66015625 56.083767361111114)"/><use xlink:href="#c" transform="matrix(1,0,0,1,512,1264) translate(49.59722222222222 88.34939236111111)"/><path d="M749.2 1258a6 6 0 0 1 6-6h148a6 6 0 0 1 6 6v108a6 6 0 0 1-6 6h-148a6 6 0 0 1-6-6z" stroke="#000" stroke-width="2" fill="#fff"/><use xlink:href="#a" transform="matrix(1,0,0,1,761.1972516328138,1264) translate(38.30164930555556 23.818142361111114)"/><use xlink:href="#b" transform="matrix(1,0,0,1,761.1972516328138,1264) translate(-8.66015625 56.083767361111114)"/><use xlink:href="#c" transform="matrix(1,0,0,1,761.1972516328138,1264) translate(49.59722222222222 88.34939236111111)"/><path d="M910.7 1312h131.96" stroke="#3a414a" fill="none"/><path d="M910.7 1312.47h-.5v-.94h.5z" stroke="#3a414a" stroke-width=".05" fill="#3a414a"/><path d="M1057.43 1312l-14.27 4.63v-9.27z" stroke="#3a414a" fill="#3a414a"/><path d="M1180 1270.67c22.1 0 40 17.9 40 40s-17.9 40-40 40h-80c-22.1 0-40-17.9-40-40s17.9-40 40-40z" stroke="#000" stroke-width="2" fill="#fff"/><use xlink:href="#i" transform="matrix(1,0,0,1,1065,1275.6666666666665) translate(45.79535590277778 43.40277777777778)"/><path d="M1420 1272c22.1 0 40 17.9 40 40s-17.9 40-40 40h-80c-22.1 0-40-17.9-40-40s17.9-40 40-40z" stroke="#000" stroke-width="2" fill="#fff"/><use xlink:href="#j" transform="matrix(1,0,0,1,1305,1277) translate(57.08550347222222 43.40277777777778)"/><path d="M220-109.82a6 6 0 0 1 6-6h144.1a6 6 0 0 1 6 6V-86a6 6 0 0 1-6 6H226a6 6 0 0 1-6-6z" fill="none"/><use xlink:href="#k" transform="matrix(1,0,0,1,225,-110.82249999999999) translate(0.4583333333333286 20.760416666666668)"/><path d="M1540 106a6 6 0 0 1 6-6h248a6 6 0 0 1 6 6v1368a6 6 0 0 1-6 6h-248a6 6 0 0 1-6-6z" fill="none"/><path d="M1540 1480c5.52 0 10-4.48 10-10V800c0-5.52 4.48-10 10-10-5.52 0-10-4.48-10-10V110c0-5.52-4.48-10-10-10" stroke="#000" stroke-width="2" fill="none"/><use xlink:href="#l" transform="matrix(1,0,0,1,1575,105) translate(0 564.0212673611112)"/><use xlink:href="#m" transform="matrix(1,0,0,1,1575,105) translate(63.064236111111114 564.0212673611112)"/><use xlink:href="#n" transform="matrix(1,0,0,1,1575,105) translate(84.01692708333334 564.0212673611112)"/><use xlink:href="#o" transform="matrix(1,0,0,1,1575,105) translate(0 596.2868923611112)"/><use xlink:href="#p" transform="matrix(1,0,0,1,1575,105) translate(0 628.5525173611112)"/><use xlink:href="#q" transform="matrix(1,0,0,1,1575,105) translate(0 660.8181423611112)"/><use xlink:href="#o" transform="matrix(1,0,0,1,1575,105) translate(0 693.0837673611112)"/><use xlink:href="#r" transform="matrix(1,0,0,1,1575,105) translate(0 725.3493923611112)"/><use xlink:href="#s" transform="matrix(1,0,0,1,1575,105) translate(25 725.3493923611112)"/><use xlink:href="#t" transform="matrix(1,0,0,1,1575,105) translate(88.06423611111111 725.3493923611112)"/><use xlink:href="#u" transform="matrix(1,0,0,1,1575,105) translate(0 757.6150173611112)"/><use xlink:href="#o" transform="matrix(1,0,0,1,1575,105) translate(0 789.8806423611112)"/><use xlink:href="#r" transform="matrix(1,0,0,1,1575,105) translate(0 822.1462673611112)"/><use xlink:href="#v" transform="matrix(1,0,0,1,1575,105) translate(25 822.1462673611112)"/><path d="M-80 906a6 6 0 0 1 6-6H92.1a6 6 0 0 1 6 6v57.16a6 6 0 0 1-6 6H-74a6 6 0 0 1-6-6z" fill="none"/><g><use xlink:href="#w" transform="matrix(1,0,0,1,-75,905) translate(0 21.95095486111111)"/><use xlink:href="#h" transform="matrix(1,0,0,1,-75,905) translate(49.609375 21.95095486111111)"/><use xlink:href="#f" transform="matrix(1,0,0,1,-75,905) translate(0 54.21657986111111)"/></g><path d="M-80 1286a6 6 0 0 1 6-6h205.42a6 6 0 0 1 6 6v57.16a6 6 0 0 1-6 6H-74a6 6 0 0 1-6-6z" fill="none"/><g><use xlink:href="#x" transform="matrix(1,0,0,1,-75,1285) translate(0 21.95095486111111)"/><use xlink:href="#h" transform="matrix(1,0,0,1,-75,1285) translate(88.93229166666666 21.95095486111111)"/><use xlink:href="#f" transform="matrix(1,0,0,1,-75,1285) translate(0 54.21657986111111)"/></g><path d="M-80 486a6 6 0 0 1 6-6H92.9a6 6 0 0 1 6 6v57.16a6 6 0 0 1-6 6H-74a6 6 0 0 1-6-6z" fill="none"/><g><use xlink:href="#y" transform="matrix(1,0,0,1,-75,485) translate(0 21.95095486111111)"/><use xlink:href="#h" transform="matrix(1,0,0,1,-75,485) translate(50.412326388888886 21.95095486111111)"/><use xlink:href="#f" transform="matrix(1,0,0,1,-75,485) translate(0 54.21657986111111)"/></g><path d="M412.3 135.54h37.1a6 6 0 0 1 6 6V160a6 6 0 0 0 6 6h21.22" stroke="#3a414a" fill="none"/><path d="M412.32 136h-.52v-.94h.52z" stroke="#3a414a" stroke-width=".05" fill="#3a414a"/><path d="M497.38 166l-14.26 4.63v-9.26z" stroke="#3a414a" fill="#3a414a"/><path d="M661.5 135.54h37.1a6 6 0 0 1 6 6V164a6 6 0 0 0 6 6h21.2" stroke="#3a414a" fill="none"/><path d="M661.5 136h-.5v-.94h.5z" stroke="#3a414a" stroke-width=".05" fill="#3a414a"/><path d="M746.58 170l-14.27 4.63v-9.26z" stroke="#3a414a" fill="#3a414a"/><path d="M412.3 502.44h37.1a6 6 0 0 1 6 6V520a6 6 0 0 0 6 6h21.22" stroke="#3a414a" fill="none"/><path d="M412.32 502.9h-.52v-.94h.52z" stroke="#3a414a" stroke-width=".05" fill="#3a414a"/><path d="M497.38 526l-14.26 4.63v-9.26z" stroke="#3a414a" fill="#3a414a"/><path d="M661.5 502.44h37.1a6 6 0 0 1 6 6V530a6 6 0 0 0 6 6h21.2" stroke="#3a414a" fill="none"/><path d="M661.5 502.9h-.5v-.94h.5z" stroke="#3a414a" stroke-width=".05" fill="#3a414a"/><path d="M746.58 536l-14.27 4.63v-9.26z" stroke="#3a414a" fill="#3a414a"/><path d="M412.3 909.16h37.1a6 6 0 0 1 6 6V926a6 6 0 0 0 6 6h21.22" stroke="#3a414a" fill="none"/><path d="M412.32 909.64h-.52v-.95h.52z" stroke="#3a414a" stroke-width=".05" fill="#3a414a"/><path d="M497.38 932l-14.26 4.63v-9.26z" stroke="#3a414a" fill="#3a414a"/><path d="M661.5 909.16h37.1a6 6 0 0 1 6 6V940a6 6 0 0 0 6 6h21.2" stroke="#3a414a" fill="none"/><path d="M661.5 909.64h-.5v-.95h.5z" stroke="#3a414a" stroke-width=".05" fill="#3a414a"/><path d="M746.58 946l-14.27 4.63v-9.26z" stroke="#3a414a" fill="#3a414a"/><path d="M412.3 1312h37.1a6 6 0 0 1 6 6v14a6 6 0 0 0 6 6h21.22" stroke="#3a414a" fill="none"/><path d="M412.32 1312.47h-.52v-.94h.52z" stroke="#3a414a" stroke-width=".05" fill="#3a414a"/><path d="M497.38 1338l-14.26 4.63v-9.27z" stroke="#3a414a" fill="#3a414a"/><path d="M661.5 1312h37.1a6 6 0 0 1 6 6v16a6 6 0 0 0 6 6h21.2" stroke="#3a414a" fill="none"/><path d="M661.5 1312.47h-.5v-.94h.5z" stroke="#3a414a" stroke-width=".05" fill="#3a414a"/><path d="M746.58 1340l-14.27 4.63v-9.27z" stroke="#3a414a" fill="#3a414a"/><path d="M910.7 909.16h131.96" stroke="#3a414a" fill="none"/><path d="M910.7 909.64h-.5v-.95h.5z" stroke="#3a414a" stroke-width=".05" fill="#3a414a"/><path d="M1057.43 909.16l-14.27 4.64v-9.27z" stroke="#3a414a" fill="#3a414a"/><defs><path d="M645 0H180v-1490h484c435 0 692 280 692 742 0 466-257 748-711 748zM370-168h263c363 0 539-218 539-580 0-358-176-574-521-574H370v1154" id="z"/><path d="M52 0l541-1490h220L1361 0h-200l-149-416H398L254 0H52zm404-582h497c-103-290-145-390-251-756-108 377-145 460-246 756" id="A"/><path d="M98-1322v-168h1126v168H757V0H567v-1322H98" id="B"/><path d="M784 20c-382 0-662-292-662-764 0-473 280-766 662-766s660 293 660 766c0 472-278 764-660 764zm0-176c266 0 475-207 475-588 0-383-209-590-475-590-268 0-477 208-477 590 0 380 209 588 477 588" id="C"/><g id="a"><use transform="matrix(0.010850694444444444,0,0,0.010850694444444444,0,0)" xlink:href="#z"/><use transform="matrix(0.010850694444444444,0,0,0.010850694444444444,15.27777777777778,0)" xlink:href="#A"/><use transform="matrix(0.010850694444444444,0,0,0.010850694444444444,28.721788194444443,0)" xlink:href="#B"/><use transform="matrix(0.010850694444444444,0,0,0.010850694444444444,42.404513888888886,0)" xlink:href="#C"/></g><path d="M798-719v166H144v-166h654" id="D"/><g id="b"><use transform="matrix(0.010850694444444444,0,0,0.010850694444444444,0,0)" xlink:href="#D"/><use transform="matrix(0.010850694444444444,0,0,0.010850694444444444,10.221354166666666,0)" xlink:href="#D"/><use transform="matrix(0.010850694444444444,0,0,0.010850694444444444,20.442708333333332,0)" xlink:href="#D"/><use transform="matrix(0.010850694444444444,0,0,0.010850694444444444,30.6640625,0)" xlink:href="#D"/><use transform="matrix(0.010850694444444444,0,0,0.010850694444444444,40.885416666666664,0)" xlink:href="#D"/><use transform="matrix(0.010850694444444444,0,0,0.010850694444444444,51.10677083333333,0)" xlink:href="#D"/><use transform="matrix(0.010850694444444444,0,0,0.010850694444444444,61.328125,0)" xlink:href="#D"/><use transform="matrix(0.010850694444444444,0,0,0.010850694444444444,71.54947916666666,0)" xlink:href="#D"/><use transform="matrix(0.010850694444444444,0,0,0.010850694444444444,81.77083333333333,0)" xlink:href="#D"/><use transform="matrix(0.010850694444444444,0,0,0.010850694444444444,91.9921875,0)" xlink:href="#D"/><use transform="matrix(0.010850694444444444,0,0,0.010850694444444444,102.21354166666666,0)" xlink:href="#D"/><use transform="matrix(0.010850694444444444,0,0,0.010850694444444444,112.43489583333334,0)" xlink:href="#D"/><use transform="matrix(0.010850694444444444,0,0,0.010850694444444444,122.65625000000001,0)" xlink:href="#D"/><use transform="matrix(0.010850694444444444,0,0,0.010850694444444444,132.87760416666669,0)" xlink:href="#D"/><use transform="matrix(0.010850694444444444,0,0,0.010850694444444444,143.09895833333334,0)" xlink:href="#D"/></g><path d="M657 26c-323 0-524-166-541-416h195c15 169 171 246 346 246 202 0 356-106 356-265 5-203-294-238-475-293-239-73-380-191-380-389 0-252 224-419 512-419 294 0 499 171 508 396H992c-17-145-151-228-328-228-193 0-321 102-321 242 0 156 175 211 284 241l149 41c160 44 422 134 422 412 0 244-197 432-541 432" id="E"/><path d="M370-1490V0H180v-1490h190" id="F"/><path d="M789 20c-398 0-667-293-667-764 0-473 273-766 655-766 315 0 558 198 612 487h-196c-61-191-204-311-415-311-262 0-471 207-471 590 0 380 208 588 482 588 249 0 420-165 425-427H828v-166h572v163c0 370-256 606-611 606" id="G"/><g id="c"><use transform="matrix(0.010850694444444444,0,0,0.010850694444444444,0,0)" xlink:href="#E"/><use transform="matrix(0.010850694444444444,0,0,0.010850694444444444,14.2578125,0)" xlink:href="#F"/><use transform="matrix(0.010850694444444444,0,0,0.010850694444444444,20.225694444444443,0)" xlink:href="#G"/></g><path d="M783 20c-382 0-661-292-661-764 0-473 279-766 661-766 302 0 548 182 601 489h-190c-42-204-217-313-411-313-268 0-476 208-476 590 0 381 209 588 476 588 195 0 369-110 411-313h190c-52 303-296 489-601 489" id="H"/><path d="M763 24c-353 0-583-224-583-531v-983h190v968c0 214 149 370 393 370 243 0 391-156 391-370v-968h190v983c0 307-230 531-581 531" id="I"/><path d="M180 0v-1490h190v1322h690V0H180" id="J"/><g id="d"><use transform="matrix(0.010850694444444444,0,0,0.010850694444444444,0,0)" xlink:href="#A"/><use transform="matrix(0.010850694444444444,0,0,0.010850694444444444,14.572482638888888,0)" xlink:href="#H"/><use transform="matrix(0.010850694444444444,0,0,0.010850694444444444,30.805121527777775,0)" xlink:href="#B"/><use transform="matrix(0.010850694444444444,0,0,0.010850694444444444,45.14973958333333,0)" xlink:href="#I"/><use transform="matrix(0.010850694444444444,0,0,0.010850694444444444,61.252170138888886,0)" xlink:href="#A"/><use transform="matrix(0.010850694444444444,0,0,0.010850694444444444,76.58420138888889,0)" xlink:href="#J"/></g><path d="M180 0v-1490h908v168H370v486h669v168H370v500h727V0H180" id="K"/><path d="M180 0v-1490h510c348 0 508 194 508 460 0 198-88 351-276 417L1256 0h-220L726-579c-117 2-238 0-356 1V0H180zm190-747h312c235 0 327-108 327-283 0-177-92-293-329-293H370v576" id="L"/><g id="e"><use transform="matrix(0.010850694444444444,0,0,0.010850694444444444,0,0)" xlink:href="#F"/><use transform="matrix(0.010850694444444444,0,0,0.010850694444444444,5.967881944444445,0)" xlink:href="#B"/><use transform="matrix(0.010850694444444444,0,0,0.010850694444444444,20.3125,0)" xlink:href="#K"/><use transform="matrix(0.010850694444444444,0,0,0.010850694444444444,33.669704861111114,0)" xlink:href="#L"/><use transform="matrix(0.010850694444444444,0,0,0.010850694444444444,47.9709201388889,0)" xlink:href="#A"/><use transform="matrix(0.010850694444444444,0,0,0.010850694444444444,63.3029513888889,0)" xlink:href="#z"/><use transform="matrix(0.010850694444444444,0,0,0.010850694444444444,79.34027777777779,0)" xlink:href="#C"/><use transform="matrix(0.010850694444444444,0,0,0.010850694444444444,96.3324652777778,0)" xlink:href="#L"/></g><path d="M653-1490V0H466v-1314h-10L96-1047v-204l324-239h233" id="M"/><g id="g"><use transform="matrix(0.010850694444444444,0,0,0.010850694444444444,0,0)" xlink:href="#M"/><use transform="matrix(0.010850694444444444,0,0,0.010850694444444444,9.038628472222221,0)" xlink:href="#L"/><use transform="matrix(0.010850694444444444,0,0,0.010850694444444444,23.33984375,0)" xlink:href="#K"/></g><path d="M180 0v-1490h224l606 953c40 63 108 177 176 312-27-437-7-821-13-1265h190V0h-226C860-448 622-778 356-1262c27 476 11 792 15 1262H180" id="N"/><g id="h"><use transform="matrix(0.010850694444444444,0,0,0.010850694444444444,0,0)" xlink:href="#F"/><use transform="matrix(0.010850694444444444,0,0,0.010850694444444444,5.967881944444445,0)" xlink:href="#B"/><use transform="matrix(0.010850694444444444,0,0,0.010850694444444444,20.3125,0)" xlink:href="#K"/><use transform="matrix(0.010850694444444444,0,0,0.010850694444444444,33.669704861111114,0)" xlink:href="#L"/><use transform="matrix(0.010850694444444444,0,0,0.010850694444444444,47.9709201388889,0)" xlink:href="#A"/><use transform="matrix(0.010850694444444444,0,0,0.010850694444444444,62.54340277777778,0)" xlink:href="#H"/><use transform="matrix(0.010850694444444444,0,0,0.010850694444444444,78.77604166666667,0)" xlink:href="#F"/><use transform="matrix(0.010850694444444444,0,0,0.010850694444444444,84.74392361111111,0)" xlink:href="#C"/><use transform="matrix(0.010850694444444444,0,0,0.010850694444444444,101.73611111111111,0)" xlink:href="#N"/></g><g id="i"><use transform="matrix(0.010850694444444444,0,0,0.010850694444444444,0,0)" xlink:href="#N"/><use transform="matrix(0.010850694444444444,0,0,0.010850694444444444,16.74262152777778,0)" xlink:href="#I"/><use transform="matrix(0.010850694444444444,0,0,0.010850694444444444,33.279079861111114,0)" xlink:href="#J"/><use transform="matrix(0.010850694444444444,0,0,0.010850694444444444,45.84418402777778,0)" xlink:href="#J"/></g><path d="M180 0v-1490h901v168H370v510h643v168H370V0H180" id="O"/><g id="j"><use transform="matrix(0.010850694444444444,0,0,0.010850694444444444,0,0)" xlink:href="#O"/><use transform="matrix(0.010850694444444444,0,0,0.010850694444444444,13.118489583333332,0)" xlink:href="#F"/><use transform="matrix(0.010850694444444444,0,0,0.010850694444444444,19.08637152777778,0)" xlink:href="#N"/></g><path d="M338-1490V0H158v-1490h180" id="P"/><path d="M158 0v-1118h180V0H158zm91-1301c-68 0-125-53-125-119s57-119 125-119c69 0 126 53 126 119s-57 119-126 119" id="Q"/><path d="M538 24C308 24 148-78 108-271l171-41c32 123 123 178 257 178 156 0 256-77 256-169 0-77-54-128-164-154l-186-44c-203-48-300-148-300-305 0-192 176-326 414-326 230 0 351 112 402 269l-163 42c-31-80-94-158-238-158-133 0-233 69-233 162 0 83 57 129 188 160l169 40c203 48 298 149 298 302 0 196-179 339-441 339" id="R"/><path d="M598-1118v154H368v674c0 100 37 144 132 144 23 0 62-6 92-12L629-6c-37 13-88 20-134 20-193 0-307-107-307-290v-688H20v-154h168v-266h180v266h230" id="S"/><path d="M471 26C259 26 90-98 90-318c0-256 228-303 435-329 202-27 287-16 287-108 0-139-79-219-234-219-161 0-248 86-283 164l-173-57c86-203 278-265 451-265 150 0 419 46 419 395V0H815v-152h-12C765-73 660 26 471 26zm31-159c199 0 310-134 310-271v-155c-30 35-226 55-295 64-131 17-246 59-246 186 0 116 97 176 231 176" id="T"/><path d="M934 0v166H0V0h934" id="U"/><path d="M628 24c-324 0-524-230-524-574 0-343 198-582 503-582 237 0 487 146 487 559v75H286c9 234 145 362 343 362 132 0 231-58 273-172l174 48C1024-91 857 24 628 24zM287-650h624c-17-190-120-322-304-322-192 0-309 151-320 322" id="V"/><path d="M158 0v-1118h174v172h12c41-113 157-188 290-188 26 0 70 2 91 3v181c-11-2-60-10-108-10-161 0-279 109-279 260V0H158" id="W"/><path d="M577 24c-279 0-473-224-473-580 0-354 195-576 474-576 218 0 287 134 324 193h14v-551h180V0H922v-173h-20C865-111 790 24 577 24zm27-161c203 0 314-172 314-421 0-247-108-413-314-413-212 0-317 181-317 413 0 235 108 421 317 421" id="X"/><path d="M613 24c-304 0-509-231-509-576 0-350 205-580 509-580 305 0 511 230 511 580 0 345-206 576-511 576zm0-161c226 0 329-195 329-415 0-222-103-419-329-419-223 0-326 196-326 419 0 220 103 415 326 415" id="Y"/><g id="k"><use transform="matrix(0.010416666666666668,0,0,0.010416666666666668,0,0)" xlink:href="#P"/><use transform="matrix(0.010416666666666668,0,0,0.010416666666666668,5.166666666666667,0)" xlink:href="#Q"/><use transform="matrix(0.010416666666666668,0,0,0.010416666666666668,10.333333333333334,0)" xlink:href="#R"/><use transform="matrix(0.010416666666666668,0,0,0.010416666666666668,21.593749999999996,0)" xlink:href="#S"/><use transform="matrix(0.010416666666666668,0,0,0.010416666666666668,28.677083333333336,0)" xlink:href="#T"/><use transform="matrix(0.010416666666666668,0,0,0.010416666666666668,40.65625,0)" xlink:href="#U"/><use transform="matrix(0.010416666666666668,0,0,0.010416666666666668,51.10416666666667,0)" xlink:href="#Q"/><use transform="matrix(0.010416666666666668,0,0,0.010416666666666668,56.27083333333334,0)" xlink:href="#S"/><use transform="matrix(0.010416666666666668,0,0,0.010416666666666668,63.04166666666667,0)" xlink:href="#V"/><use transform="matrix(0.010416666666666668,0,0,0.010416666666666668,75.47916666666667,0)" xlink:href="#W"/><use transform="matrix(0.010416666666666668,0,0,0.010416666666666668,83.51041666666667,0)" xlink:href="#T"/><use transform="matrix(0.010416666666666668,0,0,0.010416666666666668,95.48958333333334,0)" xlink:href="#X"/><use transform="matrix(0.010416666666666668,0,0,0.010416666666666668,108.55208333333334,0)" xlink:href="#Y"/><use transform="matrix(0.010416666666666668,0,0,0.010416666666666668,121.34375000000001,0)" xlink:href="#W"/><use transform="matrix(0.010416666666666668,0,0,0.010416666666666668,129.37500000000003,0)" xlink:href="#U"/><use transform="matrix(0.010416666666666668,0,0,0.010416666666666668,139.10416666666669,0)" xlink:href="#S"/></g><path d="M537 14c-226 0-379-139-379-422v-710h180v695c0 172 97 275 253 275 160 0 281-109 281-300v-670h181V0H879v-209C806-46 684 14 537 14" id="Z"/><path d="M158 0v-1118h175l1 205c55-151 181-225 313-225 147 0 245 90 285 228 53-141 190-228 352-228 194 0 352 125 352 384V0h-181v-749c0-161-105-225-225-225-151 0-243 103-243 244V0H807v-767c0-124-93-207-219-207-131 0-250 92-250 270V0H158" id="aa"/><g id="l"><use transform="matrix(0.010850694444444444,0,0,0.010850694444444444,0,0)" xlink:href="#R"/><use transform="matrix(0.010850694444444444,0,0,0.010850694444444444,11.729600694444445,0)" xlink:href="#Z"/><use transform="matrix(0.010850694444444444,0,0,0.010850694444444444,24.869791666666664,0)" xlink:href="#aa"/><use transform="matrix(0.010850694444444444,0,0,0.010850694444444444,44.3359375,0)" xlink:href="#T"/></g><path d="M226-283v-166h904v166H226zm0-434v-166h904v166H226" id="ab"/><use transform="matrix(0.010850694444444444,0,0,0.010850694444444444,0,0)" xlink:href="#ab" id="m"/><path d="M646 20c-332 0-524-278-524-764 0-483 194-766 524-766s524 283 524 766c0 485-191 764-524 764zm0-166c218 0 341-220 341-598 0-380-123-601-341-601s-341 222-341 601c0 378 123 598 341 598" id="ac"/><use transform="matrix(0.010850694444444444,0,0,0.010850694444444444,0,0)" xlink:href="#ac" id="n"/><path d="M338-670V0H158v-1118h173l1 207c72-158 192-221 342-221 226 0 378 139 378 422V0H872v-695c0-172-96-275-252-275-161 0-282 109-282 300" id="ad"/><g id="p"><use transform="matrix(0.010850694444444444,0,0,0.010850694444444444,0,0)" xlink:href="#aa"/><use transform="matrix(0.010850694444444444,0,0,0.010850694444444444,19.466145833333332,0)" xlink:href="#Q"/><use transform="matrix(0.010850694444444444,0,0,0.010850694444444444,24.84809027777778,0)" xlink:href="#V"/><use transform="matrix(0.010850694444444444,0,0,0.010850694444444444,37.80381944444444,0)" xlink:href="#ad"/><use transform="matrix(0.010850694444444444,0,0,0.010850694444444444,50.93315972222222,0)" xlink:href="#S"/><use transform="matrix(0.010850694444444444,0,0,0.010850694444444444,58.203125,0)" xlink:href="#W"/><use transform="matrix(0.010850694444444444,0,0,0.010850694444444444,66.56901041666667,0)" xlink:href="#T"/><use transform="matrix(0.010850694444444444,0,0,0.010850694444444444,79.04730902777779,0)" xlink:href="#R"/></g><path d="M611 442c-248 0-391-105-460-228l146-94c47 65 117 165 314 165 178 0 307-82 307-266v-224h-17C863-141 792-18 576-18c-268 0-472-195-472-546 0-346 197-568 476-568 216 0 288 133 326 193h17v-179h175V29c0 289-215 413-487 413zm-5-620c203 0 314-146 314-390 0-237-108-403-314-403-213 0-319 180-319 403 0 230 109 390 319 390" id="ae"/><path d="M218-607c0-325 108-727 258-974h175c-155 315-250 682-250 974 0 265 78 531 250 886H476C306-10 218-315 218-607" id="af"/><path d="M96 279C273-86 346-350 346-607c0-292-95-659-250-974h175c150 246 258 650 258 974 0 297-91 602-258 886H96" id="ag"/><path d="M295 13c-75 0-135-60-135-135s60-135 135-135 135 60 135 135S370 13 295 13zm0-809c-75 0-135-60-135-135s60-135 135-135 135 60 135 135-60 135-135 135" id="ah"/><g id="q"><use transform="matrix(0.010850694444444444,0,0,0.010850694444444444,0,0)" xlink:href="#Q"/><use transform="matrix(0.010850694444444444,0,0,0.010850694444444444,5.381944444444445,0)" xlink:href="#S"/><use transform="matrix(0.010850694444444444,0,0,0.010850694444444444,12.434895833333332,0)" xlink:href="#V"/><use transform="matrix(0.010850694444444444,0,0,0.010850694444444444,25.390625,0)" xlink:href="#W"/><use transform="matrix(0.010850694444444444,0,0,0.010850694444444444,33.756510416666664,0)" xlink:href="#U"/><use transform="matrix(0.010850694444444444,0,0,0.010850694444444444,43.89105902777777,0)" xlink:href="#S"/><use transform="matrix(0.010850694444444444,0,0,0.010850694444444444,51.16102430555556,0)" xlink:href="#Q"/><use transform="matrix(0.010850694444444444,0,0,0.010850694444444444,56.542968749999986,0)" xlink:href="#V"/><use transform="matrix(0.010850694444444444,0,0,0.010850694444444444,69.49869791666666,0)" xlink:href="#ad"/><use transform="matrix(0.010850694444444444,0,0,0.010850694444444444,82.62803819444443,0)" xlink:href="#V"/><use transform="matrix(0.010850694444444444,0,0,0.010850694444444444,95.58376736111111,0)" xlink:href="#U"/><use transform="matrix(0.010850694444444444,0,0,0.010850694444444444,105.71831597222221,0)" xlink:href="#R"/><use transform="matrix(0.010850694444444444,0,0,0.010850694444444444,117.44791666666666,0)" xlink:href="#Q"/><use transform="matrix(0.010850694444444444,0,0,0.010850694444444444,122.8298611111111,0)" xlink:href="#ae"/><use transform="matrix(0.010850694444444444,0,0,0.010850694444444444,136.45833333333331,0)" xlink:href="#Z"/><use transform="matrix(0.010850694444444444,0,0,0.010850694444444444,149.59852430555554,0)" xlink:href="#Q"/><use transform="matrix(0.010850694444444444,0,0,0.010850694444444444,154.98046875,0)" xlink:href="#V"/><use transform="matrix(0.010850694444444444,0,0,0.010850694444444444,167.93619791666666,0)" xlink:href="#ad"/><use transform="matrix(0.010850694444444444,0,0,0.010850694444444444,181.06553819444443,0)" xlink:href="#S"/><use transform="matrix(0.010850694444444444,0,0,0.010850694444444444,188.11848958333331,0)" xlink:href="#V"/><use transform="matrix(0.010850694444444444,0,0,0.010850694444444444,201.07421874999994,0)" xlink:href="#af"/><use transform="matrix(0.010850694444444444,0,0,0.010850694444444444,209.17968749999994,0)" xlink:href="#ag"/><use transform="matrix(0.010850694444444444,0,0,0.010850694444444444,217.28515624999994,0)" xlink:href="#ah"/></g><g id="s"><use transform="matrix(0.010850694444444444,0,0,0.010850694444444444,0,0)" xlink:href="#R"/><use transform="matrix(0.010850694444444444,0,0,0.010850694444444444,11.729600694444445,0)" xlink:href="#Z"/><use transform="matrix(0.010850694444444444,0,0,0.010850694444444444,24.869791666666664,0)" xlink:href="#aa"/><use transform="matrix(0.010850694444444444,0,0,0.010850694444444444,44.3359375,0)" xlink:href="#T"/></g><path d="M593-100v-404H195v-159h398v-403h169v403h398v159H762v404H593" id="ai"/><g id="t"><use transform="matrix(0.010850694444444444,0,0,0.010850694444444444,0,0)" xlink:href="#ai"/><use transform="matrix(0.010850694444444444,0,0,0.010850694444444444,14.702690972222221,0)" xlink:href="#ab"/></g><path d="M481 0L54-1118h197c107 314 236 620 325 951 87-331 217-637 324-951h197L670 0H481" id="aj"/><path d="M613 24c-304 0-509-231-509-576 0-350 205-580 509-580 216 0 392 114 453 309l-173 49c-33-115-133-197-280-197-223 0-326 196-326 419 0 220 103 415 326 415 150 0 252-85 285-206l172 49C1010-95 832 24 613 24" id="ak"/><g id="u"><use transform="matrix(0.010850694444444444,0,0,0.010850694444444444,0,0)" xlink:href="#Q"/><use transform="matrix(0.010850694444444444,0,0,0.010850694444444444,5.381944444444445,0)" xlink:href="#S"/><use transform="matrix(0.010850694444444444,0,0,0.010850694444444444,12.434895833333332,0)" xlink:href="#V"/><use transform="matrix(0.010850694444444444,0,0,0.010850694444444444,25.390625,0)" xlink:href="#W"/><use transform="matrix(0.010850694444444444,0,0,0.010850694444444444,33.756510416666664,0)" xlink:href="#U"/><use transform="matrix(0.010850694444444444,0,0,0.010850694444444444,42.13324652777777,0)" xlink:href="#aj"/><use transform="matrix(0.010850694444444444,0,0,0.010850694444444444,54.18836805555556,0)" xlink:href="#V"/><use transform="matrix(0.010850694444444444,0,0,0.010850694444444444,67.14409722222221,0)" xlink:href="#W"/><use transform="matrix(0.010850694444444444,0,0,0.010850694444444444,75.50998263888889,0)" xlink:href="#U"/><use transform="matrix(0.010850694444444444,0,0,0.010850694444444444,85.64453125,0)" xlink:href="#T"/><use transform="matrix(0.010850694444444444,0,0,0.010850694444444444,98.12282986111111,0)" xlink:href="#ak"/><use transform="matrix(0.010850694444444444,0,0,0.010850694444444444,110.81814236111111,0)" xlink:href="#S"/><use transform="matrix(0.010850694444444444,0,0,0.010850694444444444,118.08810763888889,0)" xlink:href="#Z"/><use transform="matrix(0.010850694444444444,0,0,0.010850694444444444,131.22829861111111,0)" xlink:href="#T"/><use transform="matrix(0.010850694444444444,0,0,0.010850694444444444,143.70659722222223,0)" xlink:href="#P"/><use transform="matrix(0.010850694444444444,0,0,0.010850694444444444,149.08854166666669,0)" xlink:href="#af"/><use transform="matrix(0.010850694444444444,0,0,0.010850694444444444,157.19401041666669,0)" xlink:href="#ag"/></g><path d="M126 0v-134l627-806v-11H146v-167h839v143L376-178v11h629V0H126" id="al"/><g id="v"><use transform="matrix(0.010850694444444444,0,0,0.010850694444444444,0,0)" xlink:href="#Q"/><use transform="matrix(0.010850694444444444,0,0,0.010850694444444444,5.381944444444445,0)" xlink:href="#S"/><use transform="matrix(0.010850694444444444,0,0,0.010850694444444444,12.434895833333332,0)" xlink:href="#V"/><use transform="matrix(0.010850694444444444,0,0,0.010850694444444444,25.390625,0)" xlink:href="#W"/><use transform="matrix(0.010850694444444444,0,0,0.010850694444444444,33.756510416666664,0)" xlink:href="#U"/><use transform="matrix(0.010850694444444444,0,0,0.010850694444444444,43.89105902777777,0)" xlink:href="#T"/><use transform="matrix(0.010850694444444444,0,0,0.010850694444444444,56.04383680555554,0)" xlink:href="#aj"/><use transform="matrix(0.010850694444444444,0,0,0.010850694444444444,68.42447916666666,0)" xlink:href="#T"/><use transform="matrix(0.010850694444444444,0,0,0.010850694444444444,80.90277777777777,0)" xlink:href="#ad"/><use transform="matrix(0.010850694444444444,0,0,0.010850694444444444,94.03211805555556,0)" xlink:href="#al"/><use transform="matrix(0.010850694444444444,0,0,0.010850694444444444,106.30425347222221,0)" xlink:href="#T"/><use transform="matrix(0.010850694444444444,0,0,0.010850694444444444,118.78255208333333,0)" xlink:href="#W"/><use transform="matrix(0.010850694444444444,0,0,0.010850694444444444,127.1484375,0)" xlink:href="#af"/><use transform="matrix(0.010850694444444444,0,0,0.010850694444444444,135.25390625,0)" xlink:href="#ag"/></g><path d="M635 20c-292 0-500-160-510-396h192c11 142 145 229 315 229 187 0 323-105 323-260 0-161-125-274-346-274H488v-165h121c174 0 294-100 294-254 0-148-104-245-266-245-152 0-291 85-297 230H157c8-234 222-395 484-395 278 0 448 188 448 400 0 168-95 291-247 336v12c190 31 301 169 301 357 0 244-216 425-508 425" id="am"/><g id="w"><use transform="matrix(0.010850694444444444,0,0,0.010850694444444444,0,0)" xlink:href="#am"/><use transform="matrix(0.010850694444444444,0,0,0.010850694444444444,13.726128472222221,0)" xlink:href="#L"/><use transform="matrix(0.010850694444444444,0,0,0.010850694444444444,28.02734375,0)" xlink:href="#A"/></g><path d="M180 0v-1490h270l367 940c28 72 75 218 110 339 35-117 81-264 110-339l362-940h271V0h-187c2-448-5-837 7-1287-157 497-311 829-483 1287H842C666-458 514-784 354-1284c12 438 5 843 7 1284H180" id="an"/><g id="x"><use transform="matrix(0.010850694444444444,0,0,0.010850694444444444,0,0)" xlink:href="#I"/><use transform="matrix(0.010850694444444444,0,0,0.010850694444444444,16.536458333333332,0)" xlink:href="#J"/><use transform="matrix(0.010850694444444444,0,0,0.010850694444444444,26.963975694444443,0)" xlink:href="#B"/><use transform="matrix(0.010850694444444444,0,0,0.010850694444444444,41.30859375,0)" xlink:href="#F"/><use transform="matrix(0.010850694444444444,0,0,0.010850694444444444,47.27647569444444,0)" xlink:href="#an"/><use transform="matrix(0.010850694444444444,0,0,0.010850694444444444,67.35026041666666,0)" xlink:href="#A"/></g><path d="M154 0v-137l495-537c165-179 249-281 249-418 0-156-121-253-280-253-170 0-278 110-278 278H158c0-264 200-443 465-443 266 0 455 183 455 416 0 161-73 288-336 568L416-179v12h687V0H154" id="ao"/><g id="y"><use transform="matrix(0.010850694444444444,0,0,0.010850694444444444,0,0)" xlink:href="#ao"/><use transform="matrix(0.010850694444444444,0,0,0.010850694444444444,13.55251736111111,0)" xlink:href="#z"/><use transform="matrix(0.010850694444444444,0,0,0.010850694444444444,28.83029513888889,0)" xlink:href="#A"/></g></defs></g></svg>